<svg xmlns="http://www.w3.org/2000/svg" viewBox="0 0 64 64"><defs><style>.cls-1{fill:#272835;}</style></defs><title>6-Profile</title><g id="_6-Profile" data-name="6-Profile"><path class="cls-1" d="M32,0A32,32,0,1,0,64,32,32,32,0,0,0,32,0Zm0,62a29.88,29.88,0,0,1-20.37-8H52.37A29.88,29.88,0,0,1,32,62ZM29.82,21h4.36A3.55,3.55,0,0,0,37,22.91V24c0,2.77-1.31,6-5,6s-5-3.23-5-6V22.91A3.55,3.55,0,0,0,29.82,21ZM27,20.86V16.47A8.31,8.31,0,0,1,32,15a8.31,8.31,0,0,1,5,1.47v4.39c-.5-.13-1-.38-1-.86a1,1,0,0,0-1-1H29a1,1,0,0,0-1,1C28,20.47,27.5,20.72,27,20.86Zm7.84,11.89L32,35.59l-2.84-2.84.38-1.19a7,7,0,0,0,4.9,0ZM31,37.41V41h2V37.41l3.25-3.25,6,2.61L43,38.24V52H40V47H38v5H26V47H24v5H21V38.24l.73-1.46,6-2.61ZM54.34,52H45V38a1,1,0,0,0-.11-.45l-1-2a1,1,0,0,0-.5-.47l-6.63-2.87-.54-1.67A8.2,8.2,0,0,0,39,24V16a1,1,0,0,0-.29-.71A9.73,9.73,0,0,0,32,13a9.73,9.73,0,0,0-6.71,2.29A1,1,0,0,0,25,16v8a8.2,8.2,0,0,0,2.77,6.54l-.54,1.67L20.6,35.08a1,1,0,0,0-.5.47l-1,2A1,1,0,0,0,19,38V52H9.66a30,30,0,1,1,44.67,0Z"/><path class="cls-1" d="M57,31A25,25,0,0,0,7,31H9a23,23,0,0,1,46,0Z"/><rect class="cls-1" x="7" y="33" width="2" height="2"/><rect class="cls-1" x="55" y="33" width="2" height="2"/></g></svg>